<?xml version="1.0" encoding="UTF-8" standalone="no"?><!DOCTYPE svg PUBLIC "-//W3C//DTD SVG 1.1//EN" "http://www.w3.org/Graphics/SVG/1.1/DTD/svg11.dtd"><svg width="100%" height="100%" viewBox="0 0 417 417" version="1.1" xmlns="http://www.w3.org/2000/svg" xmlns:xlink="http://www.w3.org/1999/xlink" xml:space="preserve" xmlns:serif="http://www.serif.com/" style="fill-rule:evenodd;clip-rule:evenodd;stroke-linejoin:round;stroke-miterlimit:2;"><g><path d="M133.387,104.805l143.33,-0c2.418,-0 4.145,-1.422 4.145,-3.413l-0,-4.835c-0,-1.991 -2.073,-3.413 -4.145,-3.413l-145.056,-0c-14.161,-0 -25.558,9.385 -25.558,21.047l-0,195.111c-0,7.964 7.944,14.221 17.269,14.221l169.923,0c9.67,0 17.269,-6.542 17.269,-14.221l-0,-169.514c-0,-7.963 -7.944,-14.221 -17.269,-14.221l-159.908,0c-3.453,0 -6.562,-1.137 -8.979,-3.128c-2.418,-1.991 -3.799,-4.551 -3.799,-7.395c-0,-5.688 5.871,-10.239 12.778,-10.239Z" style="fill:#c2410c;fill-rule:nonzero;"/><text x="137.928px" y="267.585px" style="font-family:'Seagull-Italic', 'Seagull';font-style:italic;font-size:125px;fill:#1e293b;">A<tspan x="209.053px " y="267.585px ">a</tspan></text></g></svg>